{"title":"After Earth (2013) [1080p] DTS - Raaki","uid":9004272,"size":2040042639,"categoryP":"video","categoryS":"hd___movies","magnet":"?xt=urn:btih:c007fa0d55c465cccdac448f65549a6ae30148c4&amp;dn=After+Earth+%282013%29+%5B1080p%5D+DTS+-+Raaki&amp;tr=udp%3A%2F%2Ftracker.openbittorrent.com%3A80&amp;tr=udp%3A%2F%2Fopen.demonii.com%3A1337&amp;tr=udp%3A%2F%2Ftracker.coppersurfer.tk%3A6969&amp;tr=udp%3A%2F%2Fexodus.desync.com%3A6969","seeders":1,"leechers":0,"uploader":"rakich","files":-1,"time":1381007309,"description":"General\n\n      Format : Matroska\n      Format version : Version 4 / Version 2\n      File size : 1.90 GiB\n      Duration : 1h 40mn\n      Overall bit rate : 2 713 Kbps\n      Movie name : After Earth 2013 By Raaki\n      Encoded date : UTC 2013-10-05 03:37:08\n\n   Video #1\n      ID : 1\n      Format : AVC\n      Format/Info : Advanced Video Codec\n      Format profile : &lt;a class=&quot;__cf_email__&quot; href=&quot;/cdn-cgi/l/email-protection&quot; data-cfemail=&quot;8cc4e5ebe4ccc0b8a2bd&quot;&gt;[email&amp;#160;protected]&lt;/a&gt;&lt;script cf-hash='f9e31' type=&quot;text/javascript&quot;&gt;\n/* &lt;![CDATA[ */!function(){try{var t=&quot;currentScript&quot;in document?document.currentScript:function(){for(var t=document.getElementsByTagName(&quot;script&quot;),e=t.length;e--;)if(t[e].getAttribute(&quot;cf-hash&quot;))return t[e]}();if(t&amp;&amp;t.previousSibling){var e,r,n,i,c=t.previousSibling,a=c.getAttribute(&quot;data-cfemail&quot;);if(a){for(e=&quot;&quot;,r=parseInt(a.substr(0,2),16),n=2;a.length-n;n+=2)i=parseInt(a.substr(n,2),16)^r,e+=String.fromCharCode(i);e=document.createTextNode(e),c.parentNode.replaceChild(e,c)}}}catch(u){}}();/* ]]&gt; */&lt;/script&gt;\n      Format settings, CABAC : Yes\n      Format settings, ReFrames : 5 frames\n      Codec ID : V_MPEG4/ISO/AVC\n      Duration : 1h 40mn\n      Bit rate : 1 957 Kbps\n      Width : 1 920 pixels\n      Height : 800 pixels\n      Display aspect ratio : 2.40:1\n      Frame rate mode : Constant\n      Frame rate : 23.976 fps\n      Color space : YUV\n      Chroma subsampling : 4:2:0\n      Bit depth : 8 bits\n      Scan type : Progressive\n      Bits/(Pixel*Frame) : 0.053\n      Stream size : 1.33 GiB (70%)\n\n      Default : Yes\n      Forced : No\n      Color primaries : BT.709\n      Matrix coefficients : BT.709\n   Audio #2\n      ID : 2\n      Format : DTS\n      Format/Info : Digital Theater Systems\n      Mode : 16\n      Format settings, Endianness : Big\n      Codec ID : A_DTS\n      Duration : 1h 40mn\n      Bit rate mode : Constant\n      Bit rate : 755 Kbps\n      Channel(s) : 6 channels\n      Channel positions : Front: L C R, Side: L R, LFE\n      Sampling rate : 48.0 KHz\n      Bit depth : 24 bits\n      Compression mode : Lossy\n      Stream size : 540 MiB (28%)\n      Title : English DTS 5.1@755Kbps\n      Language : English\n      Default : Yes\n      Forced : No\n   Text #3\n      ID : 3\n      Format : UTF-8\n      Codec ID : S_TEXT/UTF8\n      Codec ID/Info : UTF-8 Plain Text\n      Default : Yes\n      Forced : No\t\n\nScreenshots\n\n//bayimg.com/PaAaHAAFI\n\n//bayimg.com/paaaJaafi\n\n//bayimg.com/pAaALAAFi\n\n\n\n\nSample Video included..\t","torrent":{"xt":"urn:btih:c007fa0d55c465cccdac448f65549a6ae30148c4","amp;dn":"After+Earth+%282013%29+%5B1080p%5D+DTS+-+Raaki","amp;tr":["udp%3A%2F%2Ftracker.openbittorrent.com%3A80","udp%3A%2F%2Fopen.demonii.com%3A1337","udp%3A%2F%2Ftracker.coppersurfer.tk%3A6969","udp%3A%2F%2Fexodus.desync.com%3A6969"],"infoHash":"c007fa0d55c465cccdac448f65549a6ae30148c4","infoHashBuffer":{"type":"Buffer","data":[192,7,250,13,85,196,101,204,205,172,68,143,101,84,154,106,227,1,72,196]},"announce":[],"urlList":[]}}